<svg width="1080" height="1080" viewBox="0 0 1080 1080" fill="none" xmlns="http://www.w3.org/2000/svg">
<rect width="1080" height="1080" fill="#F4F6F9"/>
<circle cx="155.879" cy="816.286" r="50" fill="#FF9933"/>
<circle cx="814.879" cy="165.286" r="50" fill="#FF9933"/>
<path d="M205.603 708.27C198.972 719.754 188.051 728.134 175.242 731.567C162.433 734.999 148.785 733.202 137.301 726.572C125.817 719.941 117.437 709.02 114.005 696.211C110.573 683.402 112.37 669.754 119 658.27L162.301 683.27L205.603 708.27Z" fill="#004577"/>
<path d="M376.082 538.143C370.699 526.024 370.35 512.263 375.113 499.887C379.876 487.511 389.361 477.534 401.48 472.151C413.599 466.767 427.36 466.419 439.736 471.182C452.112 475.945 462.089 485.429 467.472 497.548L421.777 517.845L376.082 538.143Z" fill="#004577"/>
<rect x="317.5" y="314.458" width="100" height="397" transform="rotate(30 317.5 314.458)" fill="#004577"/>
<rect x="447.561" y="365.187" width="100" height="121.472" transform="rotate(-24 447.561 365.187)" fill="#004577"/>
<rect x="375.345" y="538.267" width="100" height="276.662" transform="rotate(-24 375.345 538.267)" fill="#004577"/>
<rect x="706.752" y="308.253" width="100" height="153" transform="rotate(30 706.752 308.253)" fill="#004577"/>
<rect x="836.656" y="383.253" width="100" height="427" transform="rotate(30 836.656 383.253)" fill="#004577"/>
<path d="M317.5 314.458C329.026 294.494 345.849 278.106 366.108 267.106C386.368 256.106 409.274 250.923 432.295 252.13C455.316 253.336 477.556 260.885 496.554 273.942C515.552 287 530.57 305.056 539.946 326.116L448.592 366.79C446.717 362.578 443.713 358.967 439.913 356.355C436.114 353.744 431.666 352.234 427.062 351.993C422.457 351.751 417.876 352.788 413.824 354.988C409.772 357.188 406.408 360.465 404.103 364.458L317.5 314.458Z" fill="#004577"/>
<path d="M496.409 475.633C505.773 496.665 520.763 514.702 539.726 527.755C558.69 540.809 580.89 548.372 603.879 549.61C626.867 550.848 649.751 545.714 670.007 534.773C690.263 523.832 707.104 507.509 718.673 487.605L632.216 437.354C629.902 441.335 626.534 444.599 622.483 446.787C618.432 448.976 613.855 450.002 609.257 449.755C604.659 449.507 600.219 447.995 596.427 445.384C592.634 442.773 589.636 439.166 587.763 434.959L496.409 475.633Z" fill="#004577"/>
<path d="M487.812 790.522C497.189 811.581 512.205 829.637 531.203 842.694C550.2 855.751 572.438 863.301 595.459 864.508C618.479 865.716 641.385 860.534 661.644 849.536C681.903 838.538 698.726 822.151 710.254 802.189L623.655 752.182C621.35 756.174 617.985 759.451 613.933 761.651C609.881 763.851 605.3 764.887 600.696 764.646C596.092 764.404 591.645 762.894 587.845 760.283C584.046 757.671 581.042 754.06 579.167 749.848L487.812 790.522Z" fill="#004577"/>
<path d="M923.259 433.253C939.835 404.543 944.327 370.423 935.746 338.401C927.166 306.378 906.216 279.076 877.506 262.5C848.795 245.924 814.676 241.432 782.653 250.012C750.631 258.593 723.328 279.543 706.752 308.253L793.355 358.253C796.67 352.511 802.131 348.321 808.535 346.605C814.94 344.889 821.764 345.787 827.506 349.103C833.248 352.418 837.438 357.878 839.154 364.283C840.87 370.687 839.971 377.511 836.656 383.253L923.259 433.253Z" fill="#004577"/>
</svg>
